HIERARCHY
ROOT SpineBase
{
  OFFSET 0.000000 0.000000 0.000000
  CHANNELS 6 Xposition Yposition Zposition Zrotation Xrotation Yrotation
  JOINT SpineMid
  {
    OFFSET 0.000000 21.176571 0.000000
    CHANNELS 3 Zrotation Xrotation Yrotation
    JOINT SpineShoulder
    {
      OFFSET 0.083538 15.707959 -0.542945
      CHANNELS 3 Zrotation Xrotation Yrotation
      JOINT Neck
      {
        OFFSET 0.066140 5.194410 -0.418539
        CHANNELS 3 Zrotation Xrotation Yrotation
        JOINT Head
        {
          OFFSET 0.335621 9.277549 -1.838509
          CHANNELS 3 Zrotation Xrotation Yrotation
          End Site
          {
            OFFSET 0 0 0
          }
        }
      }
      JOINT ShoulderLeft
      {
        OFFSET -5.972271 -5.072833 -5.762744
        CHANNELS 3 Zrotation Xrotation Yrotation
        JOINT ElbowLeft
        {
          OFFSET -3.210286 -15.197991 -7.149110
          CHANNELS 3 Zrotation Xrotation Yrotation
          JOINT WristLeft
          {
            OFFSET 1.577586 -20.033617 2.192718
            CHANNELS 3 Zrotation Xrotation Yrotation
            JOINT HandLeft
            {
              OFFSET 2.560425 -5.116869 -0.673470
              CHANNELS 3 Zrotation Xrotation Yrotation
              JOINT HandTipLeft
              {
                OFFSET 0.047126 -1.385721 0.366752
                CHANNELS 3 Zrotation Xrotation Yrotation
                End Site
                {
                  OFFSET 0 0 0
                }
              }
              JOINT ThumbLeft
              {
                OFFSET 0.067400 0.737131 -2.534782
                CHANNELS 3 Zrotation Xrotation Yrotation
                End Site
                {
                  OFFSET 0 0 0
                }
              }
            }
          }
        }
      }
      JOINT ShoulderRight
      {
        OFFSET 11.018231 -1.459769 12.116126
        CHANNELS 3 Zrotation Xrotation Yrotation
        JOINT ElbowRight
        {
          OFFSET -3.513620 11.854588 -14.990870
          CHANNELS 3 Zrotation Xrotation Yrotation
          JOINT WristRight
          {
            OFFSET -2.863450 16.771519 -6.273934
            CHANNELS 3 Zrotation Xrotation Yrotation
            JOINT HandRight
            {
              OFFSET 1.925083 1.421967 1.372338
              CHANNELS 3 Zrotation Xrotation Yrotation
              JOINT HandTipRight
              {
                OFFSET 0.434825 4.462623 2.522562
                CHANNELS 3 Zrotation Xrotation Yrotation
                End Site
                {
                  OFFSET 0 0 0
                }
              }
              JOINT ThumbRight
              {
                OFFSET -1.539247 0.219551 -1.067288
                CHANNELS 3 Zrotation Xrotation Yrotation
                End Site
                {
                  OFFSET 0 0 0
                }
              }
            }
          }
        }
      }
    }
  }
  JOINT HipLeft
  {
    OFFSET -3.264704 1.723369 -1.665517
    CHANNELS 3 Zrotation Xrotation Yrotation
    JOINT KneeLeft
    {
      OFFSET 1.160936 -41.717837 5.464458
      CHANNELS 3 Zrotation Xrotation Yrotation
      JOINT AnkleLeft
      {
        OFFSET 7.465802 -38.470401 7.242732
        CHANNELS 3 Zrotation Xrotation Yrotation
        JOINT FootLeft
        {
          OFFSET 6.492066 -2.482283 1.567923
          CHANNELS 3 Zrotation Xrotation Yrotation
          End Site
          {
            OFFSET 0 0 0
          }
        }
      }
    }
  }
  JOINT HipRight
  {
    OFFSET 3.987656 -0.746272 -3.842074
    CHANNELS 3 Zrotation Xrotation Yrotation
    JOINT KneeRight
    {
      OFFSET -0.515053 -41.313727 5.845557
      CHANNELS 3 Zrotation Xrotation Yrotation
      JOINT AnkleRight
      {
        OFFSET 7.096420 -38.115115 8.963320
        CHANNELS 3 Zrotation Xrotation Yrotation
        JOINT FootRight
        {
          OFFSET 7.455401 -2.963797 -9.333815
          CHANNELS 3 Zrotation Xrotation Yrotation
          End Site
          {
            OFFSET 0 0 0
          }
        }
      }
    }
  }
}
MOTION
Frames: 15
Frame Time: 0.033333
-35.006647 90.206524 337.004151 -1.956750 -0.660689 -19.612807 -0.359267 -0.897466 19.507681 0.321446 0.660739 -0.082313 -14.644218 5.041662 -2.517272 0.000000 0.000000 0.000000 5.305955 4.269765 -2.129854 -6.747639 -54.585129 -4.586247 1.878114 53.329736 4.201014 56.355079 57.516182 -17.829452 0.000000 0.000000 0.000000 0.000000 0.000000 0.000000 7.302331 -16.656440 1.670711 -5.864153 6.699791 -2.024457 46.240695 -17.491076 -11.319351 -37.459353 3.114685 16.906773 0.000000 0.000000 0.000000 0.000000 0.000000 0.000000 4.831154 -2.573830 19.715105 -2.443979 13.682633 1.729401 -19.163305 7.549133 57.580840 0.000000 0.000000 0.000000 1.578572 2.859281 19.635533 -2.493856 15.237545 2.960906 -0.922674 -17.131522 2.369862 0.000000 0.000000 0.000000
-35.840543 89.991677 335.416236 -1.931468 -0.793679 -18.508824 -0.355432 -0.791247 18.406875 0.555731 0.999140 -0.062941 -16.275167 4.892082 -2.808445 0.000000 0.000000 0.000000 5.059189 4.003889 -2.167581 -7.105521 -55.744939 -4.889485 1.237858 53.586964 4.459465 69.811356 60.167254 -26.030643 0.000000 0.000000 0.000000 0.000000 0.000000 0.000000 6.577814 -16.997405 1.184208 -6.975481 0.835266 -2.939390 47.012174 -13.088028 -11.426626 -40.600503 -0.188779 19.102004 0.000000 0.000000 0.000000 0.000000 0.000000 0.000000 4.482852 -2.339333 18.584324 -0.394162 15.867025 2.252047 -21.085147 5.591610 55.739351 0.000000 0.000000 0.000000 1.521369 2.897942 18.521385 -1.086869 18.782272 3.871346 -4.270457 -22.530723 -1.302386 0.000000 0.000000 0.000000
-36.606240 89.856228 334.038643 -2.006252 -1.140222 -21.634973 -0.057327 -1.109811 21.527531 0.515774 0.757725 -0.062298 -17.118717 6.853819 -2.511566 0.000000 0.000000 0.000000 5.058577 4.944655 -2.248809 -6.589792 -52.822543 -4.195849 0.660467 49.251944 4.108465 72.894430 59.014027 -26.144738 0.000000 0.000000 0.000000 0.000000 0.000000 0.000000 6.713533 -17.031991 1.058435 -8.309639 -2.794831 -3.846819 48.050687 -10.105374 -9.482136 -45.742206 -9.517687 24.821779 0.000000 0.000000 0.000000 0.000000 0.000000 0.000000 4.479990 -1.932572 21.657750 1.576363 19.171384 2.829118 -22.658074 3.193396 53.584675 0.000000 0.000000 0.000000 1.099148 3.648379 21.636650 1.061803 21.382679 4.651709 -16.677025 -33.048714 -7.306763 0.000000 0.000000 0.000000
-37.379089 89.568263 332.257451 -2.192305 -1.493850 -22.674734 -0.036424 -0.920094 22.558206 0.287495 0.637591 -0.079250 -16.682892 6.912786 -2.414762 0.000000 0.000000 0.000000 5.406499 5.243656 -2.255920 -6.537731 -52.745939 -4.147116 0.141210 48.188180 4.050307 65.020321 58.951721 -22.234414 0.000000 0.000000 0.000000 0.000000 0.000000 0.000000 7.998208 -18.261851 1.794225 -13.825919 -3.638800 -5.568006 53.846213 -8.659233 -11.045684 -47.435003 -19.932496 31.286342 0.000000 0.000000 0.000000 0.000000 0.000000 0.000000 4.432332 -1.393382 22.650230 3.795907 21.474665 3.167109 -24.015477 1.651780 51.943443 0.000000 0.000000 0.000000 0.907523 4.287341 22.664374 2.590175 25.609589 5.616812 -38.069933 -45.106863 -26.980620 0.000000 0.000000 0.000000
-37.965858 89.243519 330.412455 -2.331425 -1.487401 -24.308732 0.082359 -0.667080 24.192386 0.189127 0.371481 -0.085827 -15.643369 6.427403 -2.334015 0.000000 0.000000 0.000000 5.460421 5.317351 -2.262654 -6.512176 -52.610759 -4.109083 0.636550 49.029530 4.095515 63.612351 58.069714 -20.901940 0.000000 0.000000 0.000000 0.000000 0.000000 0.000000 9.057094 -18.145724 2.953517 -20.707399 -5.919446 -8.421984 62.486879 -8.729398 -19.381733 -34.823957 -32.724713 38.393117 0.000000 0.000000 0.000000 0.000000 0.000000 0.000000 4.655343 -1.274572 24.274517 5.885373 23.046205 3.266589 -24.667461 1.009047 51.037246 0.000000 0.000000 0.000000 0.750589 4.601252 24.298779 4.100388 27.733444 6.116098 -46.353175 -46.915541 -37.862744 0.000000 0.000000 0.000000
-38.472317 88.871833 328.236928 -2.366095 -1.364481 -24.439347 0.206809 -0.305428 24.333075 0.083538 -0.002955 -0.087545 -13.985340 5.504240 -2.212828 0.000000 0.000000 0.000000 5.345203 5.293917 -2.271617 -6.397233 -52.672707 -4.042608 0.528335 49.081587 4.140408 63.776766 58.034576 -20.941175 0.000000 0.000000 0.000000 0.000000 0.000000 0.000000 11.232996 -20.786267 4.968567 -23.855550 -2.254096 -8.619553 65.352545 -10.489070 -16.619079 -35.552683 -34.360622 39.842356 0.000000 0.000000 0.000000 0.000000 0.000000 0.000000 4.816417 -1.362536 24.419355 7.624765 23.481014 3.191818 -23.428840 1.193319 50.008233 0.000000 0.000000 0.000000 0.852974 4.547010 24.434812 5.297935 26.337281 5.879985 -61.804174 -47.795348 -47.684005 0.000000 0.000000 0.000000
-39.169380 88.292627 325.882996 -2.172403 -0.994689 -23.853962 0.379074 0.203856 23.776214 -0.028340 -0.428351 -0.076188 -13.305254 5.453963 -2.142981 0.000000 0.000000 0.000000 4.905981 4.951502 -2.277054 -6.385116 -52.675775 -4.027527 0.515509 49.081568 4.145123 63.994510 57.977947 -20.983676 0.000000 0.000000 0.000000 0.000000 0.000000 0.000000 14.784063 -25.618754 8.470541 -26.364120 9.291998 -6.370433 71.976924 -16.945657 14.803209 -48.366286 -9.110108 17.164451 0.000000 0.000000 0.000000 0.000000 0.000000 0.000000 4.862673 -1.737264 23.888449 8.692944 22.566290 3.010246 -22.017557 2.628653 51.148772 0.000000 0.000000 0.000000 0.879969 4.109075 23.858183 7.310039 23.637937 5.509922 -72.625940 -46.508558 -53.586690 0.000000 0.000000 0.000000
-39.813126 87.676825 323.862164 -1.986418 -1.083960 -20.974264 0.489182 0.198704 20.905131 -0.049051 -0.230025 -0.062645 -12.583755 6.030143 -1.986338 0.000000 0.000000 0.000000 3.346129 3.451058 -1.300698 -6.053536 -51.139815 -5.203546 1.234751 46.144498 2.081913 80.404890 63.801400 -36.321503 0.000000 0.000000 0.000000 0.000000 0.000000 0.000000 18.787922 -31.015651 12.010581 -31.170573 26.121879 -1.357309 69.320412 -20.376291 41.428608 -42.952345 10.479210 -3.074439 0.000000 0.000000 0.000000 0.000000 0.000000 0.000000 4.561447 -1.674022 21.032244 8.808807 19.986890 2.775189 -23.738024 5.586980 56.840775 0.000000 0.000000 0.000000 0.963949 3.866230 20.972763 9.302766 20.933445 5.185028 -88.389735 -44.013762 -63.777656 0.000000 0.000000 0.000000
-40.408987 87.192334 321.827986 -1.874478 -0.799116 -14.903890 0.452286 0.141735 14.843025 0.026364 -0.163931 -0.056558 -11.574676 5.459208 -1.930641 0.000000 0.000000 0.000000 3.507184 3.549312 -1.540186 -6.099182 -51.626801 -4.905746 1.464375 46.730823 2.172143 76.977060 63.272271 -33.570552 0.000000 0.000000 0.000000 0.000000 0.000000 0.000000 22.821749 -36.230986 15.531270 -45.866776 44.980792 10.724668 73.494593 -26.336133 44.749059 -42.919144 11.541766 3.724666 0.000000 0.000000 0.000000 0.000000 0.000000 0.000000 4.513853 -1.968789 15.043003 9.131179 18.678109 2.699045 -26.395783 6.325030 58.168042 0.000000 0.000000 0.000000 1.449381 2.857850 14.895896 10.882292 17.451871 4.731082 -87.862359 -44.190350 -57.777795 0.000000 0.000000 0.000000
-40.870574 87.099858 320.018324 -1.767926 -0.256371 -12.694263 0.296175 0.210882 12.642281 0.129874 -0.216052 -0.054412 -10.758162 4.225257 -1.965734 0.000000 0.000000 0.000000 5.010867 4.786379 -2.723938 -6.431406 -53.630478 -3.430202 2.160806 50.823013 3.559749 69.019332 52.583027 -17.988573 0.000000 0.000000 0.000000 0.000000 0.000000 0.000000 26.165912 -39.894294 18.623736 -99.018845 57.881040 55.996228 83.629659 -28.559359 35.751898 -35.993275 -3.489164 15.721974 0.000000 0.000000 0.000000 0.000000 0.000000 0.000000 4.943291 -2.764845 12.948813 8.933317 18.067019 2.542455 -30.540679 5.846974 56.160295 0.000000 0.000000 0.000000 1.620998 1.817751 12.697658 10.509526 13.805065 4.179227 -60.118150 -43.074584 -28.860055 0.000000 0.000000 0.000000
-41.306297 86.801828 318.124147 -1.703753 0.112932 -10.058846 0.195988 0.181597 10.010090 0.172979 -0.097326 -0.055509 -9.589851 2.538850 -1.929347 0.000000 0.000000 0.000000 8.197971 6.675876 -4.898785 -7.077115 -56.196750 -0.572008 -2.865061 55.667314 10.447841 47.174370 32.419779 -0.542999 0.000000 0.000000 0.000000 0.000000 0.000000 0.000000 24.226397 -42.950246 16.125683 -133.223323 50.423947 90.519466 96.991169 -31.647373 46.417414 -39.827118 -0.350656 21.360755 0.000000 0.000000 0.000000 0.000000 0.000000 0.000000 5.067904 -3.224738 10.392405 9.047329 17.370552 2.467924 -36.884702 4.563528 50.001458 0.000000 0.000000 0.000000 1.554641 1.024725 10.049505 11.418631 10.765960 3.902656 -49.124797 -38.687650 -13.704228 0.000000 0.000000 0.000000
-41.569849 86.484750 316.414709 -1.477724 0.585707 -10.404094 0.288709 0.262911 10.371500 0.443747 0.230219 -0.021325 -9.159367 0.947060 -1.961696 0.000000 0.000000 0.000000 11.551407 9.108216 -7.786383 -7.520862 -60.261145 3.093303 -14.799247 64.349824 26.162062 28.589318 11.448900 0.305400 0.000000 0.000000 0.000000 0.000000 0.000000 0.000000 25.068468 -44.503026 17.622935 -159.114093 38.370878 120.220767 102.362348 -39.979621 51.604925 -32.036794 -4.750574 24.456899 0.000000 0.000000 0.000000 0.000000 0.000000 0.000000 5.269878 -3.908227 10.825866 8.960468 17.644283 2.398819 -43.437653 3.059161 37.747133 0.000000 0.000000 0.000000 1.559218 -0.309045 10.415853 12.175899 8.788868 3.566969 -45.566186 -35.943112 -5.521386 0.000000 0.000000 0.000000
-41.606804 86.158433 315.221362 -1.281086 0.890863 -12.348383 0.335579 -0.065228 12.322004 0.323344 0.047055 -0.022268 -8.057049 0.479168 -1.731042 0.000000 0.000000 0.000000 16.290720 13.079617 -11.627265 -7.275388 -65.479099 7.893282 -41.962699 70.805227 57.479658 22.439310 -9.672990 -3.680249 0.000000 0.000000 0.000000 0.000000 0.000000 0.000000 25.088724 -47.677234 16.997589 -169.951508 26.949597 142.493212 111.803753 -49.903067 61.375251 -27.088665 -6.568773 27.511177 0.000000 0.000000 0.000000 0.000000 0.000000 0.000000 5.566940 -4.464865 12.834709 8.533407 19.580822 2.454108 -48.911745 1.674496 8.338124 0.000000 0.000000 0.000000 0.811775 0.100089 12.286866 13.412778 5.896140 3.782643 -47.625817 -36.634870 -2.289920 0.000000 0.000000 0.000000
-41.619719 85.624796 313.814365 -1.209602 1.199420 -10.972171 0.145188 0.108786 10.944262 0.165648 0.180612 -0.043387 -6.136346 -1.835696 -1.475579 0.000000 0.000000 0.000000 21.497132 16.171379 -15.561365 -5.296644 -70.931639 14.189421 -76.441633 70.508711 96.010256 20.191300 -21.378286 -8.645652 0.000000 0.000000 0.000000 0.000000 0.000000 0.000000 24.576481 -53.754960 15.230633 -176.635182 18.023073 171.877853 127.286060 -62.877173 73.336616 -18.384646 -9.295676 35.098562 0.000000 0.000000 0.000000 0.000000 0.000000 0.000000 5.619229 -4.907957 11.518957 8.396138 19.352143 2.408601 -50.007225 2.022177 -9.461067 0.000000 0.000000 0.000000 0.657355 -0.523306 10.885820 14.455785 4.533261 3.783752 -56.235431 -41.120579 -6.625702 0.000000 0.000000 0.000000
-41.495371 85.041864 312.675104 -1.146869 1.520212 -9.951671 0.090397 0.177028 9.925475 0.158501 0.189318 -0.045660 -4.662158 -3.317462 -1.181748 0.000000 0.000000 0.000000 25.939892 18.928890 -19.285811 -0.723536 -75.635760 22.257008 -96.305411 65.865459 119.077452 18.600815 -31.853914 -12.716533 0.000000 0.000000 0.000000 0.000000 0.000000 0.000000 20.585211 -62.175001 9.606968 162.856895 22.410874 -124.511825 -99.770629 -73.478835 -155.856404 -7.331406 -7.974046 50.491247 0.000000 0.000000 0.000000 0.000000 0.000000 0.000000 5.710219 -5.428295 10.561379 8.396150 18.206625 2.249986 -49.688927 2.533129 -14.608754 0.000000 0.000000 0.000000 0.547347 -1.158372 9.846636 15.171598 3.161836 3.729942 -60.680246 -42.272285 -10.809372 0.000000 0.000000 0.000000
